{"title":"J Edgar 2011 BDRip XVID AC3 HQ Hive-CM8","uid":7027435,"size":1943786612,"categoryP":"video","categoryS":"movies","magnet":"?xt=urn:btih:634bc4090bacd4cdb97b7e0ab1cdd43d3e8f6500&amp;dn=J+Edgar+2011+BDRip+XVID+AC3+HQ+Hive-CM8&amp;tr=udp%3A%2F%2Ftracker.openbittorrent.com%3A80&amp;tr=udp%3A%2F%2Fopen.demonii.com%3A1337&amp;tr=udp%3A%2F%2Ftracker.coppersurfer.tk%3A6969&amp;tr=udp%3A%2F%2Fexodus.desync.com%3A6969","seeders":0,"leechers":1,"uploader":"jerry7_57","files":-1,"time":1329119142,"description":"CM8 Doing It Right The First Time\n\nSource: Bluray\n\nEncode:\nAnother great Movie and the producer decided to make the movie dark and colourless\nDid not like it, so i fixed brightness, contrast, chroma, rgb and denoise\nLooks now like it should be in the first place\n\nHere\\'s a comparison of before and after: &lt;a href=&quot;\nhttp://screenshotcomparison.com/comparison/107573&quot; rel=&quot;nofollow&quot; target=&quot;_NEW&quot;&gt;\nhttp://screenshotcomparison.com/comparison/107573&lt;/a&gt;\nVideo: 720x304 @bitrate 1500 2pass\nAudio: English DTS to AC3 5.1 @384\nSubs: Yes, English in srt /subs\nSample: Yes, included &lt;a href=&quot;\nhttp://www.imdb.com/title/tt1616195/&quot; rel=&quot;nofollow&quot; target=&quot;_NEW&quot;&gt;\nhttp://www.imdb.com/title/tt1616195/&lt;/a&gt;\n\nGeneral\nComplete name: J.Edgar.2011.BDRip.XVID.AC3.HQ.Hive-CM8.avi\nFormat: AVI\nFormat/Info: Audio Video Interleave\nFile size: 1.81 GiB\nDuration: 2h 16mn\nOverall bit rate: 1 893 Kbps\nWriting application: Nandub v1.0rc2\nWriting library: Nandub build 1853/release\n\nVideo\nID: 0\nFormat: MPEG-4 Visual\nFormat profile: Advanced Simple@L5\nFormat settings, BVOP: 2\nFormat settings, QPel: Yes\nFormat settings, GMC: No warppoints\nFormat settings, Matrix: Default (H.263)\nMuxing mode: Packed bitstream\nCodec ID: XVID\nCodec ID/Hint: XviD\nDuration: 2h 16mn\nBit rate: 1 500 Kbps\nWidth: 720 pixels\nHeight: 304 pixels\nDisplay aspect ratio: 2.35:1\nFrame rate: 23.976 fps\nColor space: YUV\nChroma subsampling: 4:2:0\nBit depth: 8 bits\nScan type: Progressive\nCompression mode: Lossy\nBits/(Pixel*Frame): 0.286\nStream size: 1.43 GiB (79%)\nWriting library: XviD 1.2.1 (UTC 2008-12-04)\n\nAudio\nID: 1\nFormat: AC-3\nFormat/Info: Audio Coding 3\nMode extension: CM (complete main)\nCodec ID: 2000\nDuration: 2h 16mn\nBit rate mode: Constant\nBit rate: 384 Kbps\nChannel(s): 6 channels\nChannel positions: Front: L C R, Side: L R, LFE\nSampling rate: 48.0 KHz\nBit depth: 16 bits\nCompression mode: Lossy\nStream size: 376 MiB (20%)\nAlignment: Split accross interleaves\nInterleave, duration: 42 ms (1.00 video frame)\nInterleave, preload duration: 500 ms\n\nPlot:\nAs the face of law enforcement in America for almost 50 years\nJ. Edgar Hoover was feared and admired, reviled and revered\nBut behind closed doors, he held secrets that would have\ndestroyed his image, his career and his life\n\nCast:\nLeonardo DiCaprio ... J. Edgar Hoover\nArmie Hammer ... Clyde Tolson\nNaomi Watts ... Helen Gandy\nJudi Dench ... Anna Marie Hoover ","torrent":{"xt":"urn:btih:634bc4090bacd4cdb97b7e0ab1cdd43d3e8f6500","amp;dn":"J+Edgar+2011+BDRip+XVID+AC3+HQ+Hive-CM8","amp;tr":["udp%3A%2F%2Ftracker.openbittorrent.com%3A80","udp%3A%2F%2Fopen.demonii.com%3A1337","udp%3A%2F%2Ftracker.coppersurfer.tk%3A6969","udp%3A%2F%2Fexodus.desync.com%3A6969"],"infoHash":"634bc4090bacd4cdb97b7e0ab1cdd43d3e8f6500","infoHashBuffer":{"type":"Buffer","data":[99,75,196,9,11,172,212,205,185,123,126,10,177,205,212,61,62,143,101,0]},"announce":[],"urlList":[]}}